<mxfile host="app.diagrams.net" modified="2023-09-15T07:36:31.873Z" agent="Mozilla/5.0 (Windows NT 10.0; Win64; x64) AppleWebKit/537.36 (KHTML, like Gecko) Chrome/116.0.0.0 Safari/537.36" version="21.6.7" etag="TAUpirVIFz0jjpblIlIK" type="github">
  <diagram name="第 1 页" id="ZL8_l4ThqftKADsf5yUj">
    <mxGraphModel>
      <root>
        <mxCell id="0" />
        <mxCell id="1" parent="0" />
      </root>
    </mxGraphModel>
  </diagram>
</mxfile>
